<svg width="200" height="200" viewBox="0 0 200 200" fill="none" xmlns="http://www.w3.org/2000/svg">
<circle cx="100" cy="100" r="100" fill="#E6EDF7"/>
<g clip-path="url(#clip0)">
<path d="M36.5289 95.9147C35.9467 97.1353 35.6321 98.4842 35.6321 99.8716V159.77C35.6321 162.415 36.7509 164.799 38.5394 166.476H161.461C163.249 164.799 164.368 162.415 164.368 159.77V99.8716C164.368 98.4842 164.053 97.1353 163.471 95.9147H36.5289Z" fill="#1553AD"/>
<path d="M160.853 92.6412L145.977 80.9526H54.0226L39.146 92.6412C38.0181 93.5275 37.1304 94.6528 36.5286 95.9149L54.0226 105.912H145.977L163.471 95.9149C162.869 94.6525 161.981 93.5272 160.853 92.6412Z" fill="#00B0D9"/>
<path d="M163.471 95.9147H157.088C157.67 97.1353 157.985 98.4842 157.985 99.8716V159.77C157.985 162.415 156.866 164.799 155.077 166.476H161.46C163.249 164.799 164.368 162.415 164.368 159.77V99.8716C164.368 98.4844 164.053 97.1356 163.471 95.9147Z" fill="#094AA9"/>
<path d="M154.471 92.6412C156.478 94.2188 157.727 96.5518 157.947 99.072L163.472 95.9149C162.87 94.6528 161.982 93.5275 160.854 92.6412L145.978 80.9526H139.594L154.471 92.6412Z" fill="#029CC0"/>
<path d="M145.402 105.911V54.023L130.258 46.7697L122.414 31.0345H58.0458C55.5065 31.0345 53.448 33.093 53.448 35.6323V105.911L86.5514 124.828H112.298L145.402 105.911Z" fill="white"/>
<path d="M139.594 50.9659V109.559L145.977 105.911V54.0231L139.594 50.9659Z" fill="#E8ECFA"/>
<path d="M122.989 31.0345V49.4254C122.989 51.9648 125.047 54.0232 127.586 54.0232H145.977L122.989 31.0345Z" fill="#BDD5F8"/>
<path d="M105.984 118.923C102.541 115.971 97.4592 115.971 94.0158 118.923L38.5378 166.475C40.1825 168.018 42.3937 168.966 44.8274 168.966H155.172C157.606 168.966 159.817 168.018 161.462 166.475L105.984 118.923Z" fill="#ECBF71"/>
<path d="M105.984 118.923C102.541 115.971 97.4592 115.971 94.0158 118.923L38.5378 166.475C40.1825 168.018 42.3937 168.966 44.8274 168.966H155.172C157.606 168.966 159.817 168.018 161.462 166.475L105.984 118.923Z" fill="#00B0D9"/>
<path d="M161.462 166.475L157.402 162.995C156.095 166.483 152.733 168.966 148.789 168.966H155.172C157.606 168.966 159.817 168.018 161.462 166.475Z" fill="#029CC0"/>
<path d="M66.7543 96.5517L65.0747 95.5562L66.6659 93.0672L63.793 93.2256V91.2571L66.688 91.4381L65.0968 88.9266L66.7764 87.931L68.1244 90.782L69.4504 87.931L71.1299 88.9492L69.5388 91.4381L72.4338 91.2571V93.2256L69.5388 93.0672L71.1299 95.5562L69.4504 96.5517L68.1023 93.6782L66.7543 96.5517Z" fill="#0E2445"/>
<path d="M79.5089 96.5517L77.8293 95.5562L79.4205 93.0672L76.5476 93.2256V91.2571L79.4426 91.4381L77.8514 88.9266L79.531 87.931L80.879 90.782L82.205 87.931L83.8845 88.9492L82.2934 91.4381L85.1884 91.2571V93.2256L82.2934 93.0672L83.8845 95.5562L82.205 96.5517L80.8569 93.6782L79.5089 96.5517Z" fill="#0E2445"/>
<path d="M92.2635 96.5517L90.5839 95.5562L92.1751 93.0672L89.3022 93.2256V91.2571L92.1972 91.4381L90.606 88.9266L92.2856 87.931L93.6336 90.782L94.9596 87.931L96.6391 88.9492L95.048 91.4381L97.943 91.2571V93.2256L95.048 93.0672L96.6391 95.5562L94.9596 96.5517L93.6115 93.6782L92.2635 96.5517Z" fill="#0E2445"/>
<path d="M105.018 96.5517L103.339 95.5562L104.93 93.0672L102.057 93.2256V91.2571L104.952 91.4381L103.361 88.9266L105.04 87.931L106.388 90.782L107.714 87.931L109.394 88.9492L107.803 91.4381L110.698 91.2571V93.2256L107.803 93.0672L109.394 95.5562L107.714 96.5517L106.366 93.6782L105.018 96.5517Z" fill="#0E2445"/>
<path d="M117.773 96.5517L116.093 95.5562L117.684 93.0672L114.811 93.2256V91.2571L117.706 91.4381L116.115 88.9266L117.795 87.931L119.143 90.782L120.469 87.931L122.148 88.9492L120.557 91.4381L123.452 91.2571V93.2256L120.557 93.0672L122.148 95.5562L120.469 96.5517L119.121 93.6782L117.773 96.5517Z" fill="#0E2445"/>
<path d="M130.527 96.5517L128.848 95.5562L130.439 93.0672L127.566 93.2256V91.2571L130.461 91.4381L128.87 88.9266L130.549 87.931L131.897 90.782L133.223 87.931L134.903 88.9492L133.312 91.4381L136.207 91.2571V93.2256L133.312 93.0672L134.903 95.5562L133.223 96.5517L131.875 93.6782L130.527 96.5517Z" fill="#0E2445"/>
<path d="M100.096 77.807C98.3125 77.807 96.6757 77.5219 95.1861 76.9518C93.6964 76.3817 92.4091 75.5725 91.324 74.5242C90.239 73.476 89.4022 72.2346 88.8137 70.8001C88.2252 69.3472 87.9309 67.738 87.9309 65.9725C87.9309 63.453 88.455 61.2553 89.5033 59.3794C90.57 57.4851 92.0596 56.0231 93.9723 54.9932C95.8849 53.9633 98.1194 53.4484 100.676 53.4484C102.919 53.4484 104.869 53.8805 106.524 54.7449C108.179 55.5909 109.457 56.7955 110.358 58.3587C111.278 59.9035 111.738 61.7334 111.738 63.8484C111.738 65.43 111.508 66.8001 111.048 67.9587C110.588 69.1173 109.945 70.0185 109.117 70.6622C108.308 71.2874 107.352 71.6001 106.248 71.6001C104.409 71.6001 103.177 70.8461 102.552 69.338C102.073 70.092 101.494 70.6622 100.814 71.0484C100.152 71.4162 99.4344 71.6001 98.6619 71.6001C97.1171 71.6001 95.9217 71.1219 95.0757 70.1656C94.2481 69.1909 93.8344 67.8851 93.8344 66.2484C93.8344 64.9058 94.0826 63.7196 94.5792 62.6897C95.0757 61.6415 95.7654 60.8231 96.6481 60.2346C97.5309 59.6277 98.5424 59.3242 99.6826 59.3242C101.172 59.3242 102.23 59.9035 102.855 61.0622L103.158 59.6277H106.607L105.531 65.6691C105.476 66.0369 105.43 66.3679 105.393 66.6622C105.356 66.938 105.338 67.1863 105.338 67.407C105.338 67.9403 105.43 68.3173 105.614 68.538C105.816 68.7587 106.11 68.8691 106.496 68.8691C107.195 68.8691 107.765 68.4093 108.207 67.4897C108.667 66.5518 108.896 65.338 108.896 63.8484C108.896 61.3656 108.179 59.4805 106.745 58.1932C105.329 56.8874 103.306 56.2346 100.676 56.2346C98.7263 56.2346 97.0344 56.63 95.5999 57.4208C94.1654 58.2116 93.0527 59.3334 92.2619 60.7863C91.4895 62.2392 91.1033 63.9679 91.1033 65.9725C91.1033 67.8484 91.4711 69.4668 92.2068 70.8277C92.9424 72.1702 93.9815 73.2001 95.324 73.9173C96.6849 74.653 98.2757 75.0208 100.096 75.0208C102.616 75.0208 104.722 74.3955 106.414 73.1449L107.738 75.5725C106.873 76.2897 105.779 76.8415 104.455 77.2277C103.131 77.6139 101.678 77.807 100.096 77.807ZM99.4344 68.676C100.28 68.676 100.961 68.2989 101.476 67.5449C101.991 66.7725 102.248 65.7334 102.248 64.4277C102.248 62.9748 101.632 62.2484 100.4 62.2484C99.5355 62.2484 98.8367 62.6162 98.3033 63.3518C97.7884 64.0691 97.5309 65.0162 97.5309 66.1932C97.5309 67.8484 98.1654 68.676 99.4344 68.676Z" fill="#00B0D9"/>
</g>
<path d="M81.1188 17.2413L52.7368 58.8187L45.2678 52.1987H45.1967L37.1587 45.1749L31.8948 65.2774L32.0371 40.7346V40.1695L17.2415 26.7678L81.1188 17.2413Z" fill="#62C4B5"/>
<path d="M77.2755 18.9354L37.1566 45.1736L31.8928 65.276L32.0351 40.7333L77.2755 18.9354Z" fill="#42AA91"/>
<path d="M45.1947 52.1962L31.8928 65.5172V65.275L37.1567 45.1725L45.1947 52.1962Z" fill="#28846F"/>
<defs>
<clipPath id="clip0">
<rect width="137.931" height="137.931" fill="white" transform="translate(31.0344 31.0345)"/>
</clipPath>
</defs>
</svg>
