<svg width="220" height="220" viewBox="0 0 220 220" fill="none" xmlns="http://www.w3.org/2000/svg">
<g clip-path="url(#clip0)">
<path d="M219.996 89.314C219.994 87.1734 219.921 85.0435 219.781 82.9273C210.037 82.9273 44.3816 82.9273 39.1374 82.9273L30.8313 55.9326C27.626 45.5159 17.5991 38.2411 6.44815 38.2411C2.88873 38.2411 0.00302887 41.1268 0.00302887 44.6862C0.00302887 48.2457 2.88873 51.1314 6.44815 51.1314C11.9059 51.1314 16.9791 54.7449 18.5108 59.7231C29.1831 94.4074 28.1467 91.055 28.2816 91.4512C28.4892 92.0575 29.5711 95.0785 40.4041 125.411C44.3622 136.494 56.8146 143.941 71.3901 143.941H93.6047L87.5875 158.982C68.8399 155.821 51.9937 170.348 51.9937 189.057C51.9937 205.979 65.6969 219.994 82.5006 219.994C97.2698 219.994 109.422 209.235 112.328 195.502H135.171C136.38 201.215 139.184 206.497 143.372 210.788C155.357 223.069 174.637 223.073 186.625 210.788C192.352 204.92 195.506 197.203 195.506 189.057C195.506 170.345 178.656 155.822 159.912 158.982L153.894 143.941H176.109C190.668 143.941 203.109 136.51 207.081 125.447C220.393 89.4545 219.996 90.9824 219.996 89.314ZM135.183 182.612H112.316C110.631 174.81 105.959 168.107 99.5544 163.774L107.488 143.941H140.01L147.944 163.774C141.54 168.107 136.867 174.81 135.183 182.612Z" fill="#094AA9"/>
<path d="M218.045 70.037C210.095 31.2185 177.744 0 137.499 0H127.187C124.409 0 121.943 1.77971 121.069 4.41663L99.3091 70.037H218.045Z" fill="#00B0D9"/>
</g>
<defs>
<clipPath id="clip0">
<rect width="220" height="220" fill="white"/>
</clipPath>
</defs>
</svg>
