<svg width="762" height="220" viewBox="0 0 762 220" fill="none" xmlns="http://www.w3.org/2000/svg">
<g clip-path="url(#clip0)">
<path d="M219.909 89.314C219.908 87.1733 219.834 85.0434 219.694 82.9273C209.954 82.9273 44.3641 82.9273 39.122 82.9273L30.8192 55.9325C27.6151 45.5159 17.5922 38.2411 6.44564 38.2411C2.88761 38.2411 0.00305176 41.1268 0.00305176 44.6862C0.00305176 48.2456 2.88761 51.1313 6.44564 51.1313C11.9012 51.1313 16.9724 54.7449 18.5036 59.7231C29.1716 94.4073 28.1357 91.055 28.2705 91.4512C28.478 92.0574 29.5595 95.0785 40.3882 125.411C44.3448 136.494 56.7923 143.941 71.362 143.941H93.5679L87.5531 158.982C68.8129 155.821 51.9732 170.348 51.9732 189.057C51.9732 205.979 65.671 219.994 82.4682 219.994C97.2316 219.994 109.379 209.235 112.284 195.502H135.118C136.326 201.215 139.129 206.497 143.315 210.788C155.296 223.069 174.568 223.073 186.552 210.788C192.276 204.92 195.429 197.203 195.429 189.057C195.429 170.345 178.586 155.822 159.849 158.982L153.833 143.941H176.039C190.593 143.941 203.029 136.51 207 125.447C220.306 89.4545 219.909 90.9824 219.909 89.314ZM135.129 182.612H112.272C110.587 174.81 105.917 168.107 99.5152 163.774L107.446 143.941H139.955L147.886 163.774C141.484 168.107 136.814 174.81 135.129 182.612Z" fill="#094AA9"/>
<path d="M217.96 70.037C210.012 31.2185 177.674 0 137.445 0H127.137C124.36 0 121.896 1.77971 121.022 4.41663L99.27 70.037H217.96Z" fill="#00B0D9"/>
</g>
<path d="M333.928 157.773C323.064 157.773 313.772 155.628 306.053 151.338C298.335 147.048 292.379 141.042 288.186 133.32C284.088 125.503 282.039 116.303 282.039 105.721C282.039 95.2343 284.088 86.13 288.186 78.408C292.379 70.5907 298.335 64.537 306.053 60.247C313.772 55.957 323.064 53.812 333.928 53.812C340.598 53.812 346.983 54.8607 353.082 56.958C359.181 59.0553 364.184 61.9153 368.091 65.538L361.23 83.127C356.941 79.7903 352.605 77.3593 348.222 75.834C343.934 74.2133 339.407 73.403 334.642 73.403C325.017 73.403 317.727 76.2153 312.772 81.84C307.912 87.3693 305.482 95.3297 305.482 105.721C305.482 116.112 307.912 124.12 312.772 129.745C317.727 135.37 325.017 138.182 334.642 138.182C339.407 138.182 343.934 137.419 348.222 135.894C352.605 134.273 356.941 131.795 361.23 128.458L368.091 146.047C364.184 149.574 359.181 152.434 353.082 154.627C346.983 156.724 340.598 157.773 333.928 157.773Z" fill="#0E2445"/>
<path d="M413.866 157.773C406.338 157.773 399.762 156.295 394.14 153.34C388.613 150.289 384.324 146.047 381.275 140.613C378.225 135.084 376.701 128.553 376.701 121.022C376.701 113.586 378.225 107.151 381.275 101.717C384.324 96.1877 388.613 91.9453 394.14 88.99C399.762 86.0347 406.338 84.557 413.866 84.557C421.394 84.557 427.922 86.0347 433.449 88.99C439.072 91.9453 443.408 96.1877 446.457 101.717C449.602 107.151 451.174 113.586 451.174 121.022C451.174 128.553 449.602 135.084 446.457 140.613C443.408 146.047 439.072 150.289 433.449 153.34C427.922 156.295 421.394 157.773 413.866 157.773ZM413.866 141.614C418.44 141.614 422.157 139.946 425.016 136.609C427.97 133.272 429.447 128.077 429.447 121.022C429.447 114.063 427.97 108.962 425.016 105.721C422.157 102.384 418.44 100.716 413.866 100.716C409.292 100.716 405.575 102.384 402.716 105.721C399.857 108.962 398.428 114.063 398.428 121.022C398.428 128.077 399.857 133.272 402.716 136.609C405.575 139.946 409.292 141.614 413.866 141.614Z" fill="#0E2445"/>
<path d="M468.704 156.2V85.987H489.86V96.283C492.242 92.4697 495.435 89.562 499.437 87.56C503.44 85.558 507.919 84.557 512.874 84.557C521.165 84.557 527.359 86.988 531.457 91.85C535.554 96.6167 537.603 104.005 537.603 114.015V156.2H516.019V115.016C516.019 110.154 515.113 106.674 513.303 104.577C511.492 102.384 508.824 101.288 505.298 101.288C500.724 101.288 497.055 102.718 494.291 105.578C491.623 108.438 490.289 112.251 490.289 117.018V156.2H468.704Z" fill="#0E2445"/>
<path d="M601.427 157.773C596.472 157.773 591.993 156.677 587.99 154.484C584.083 152.291 581.177 149.384 579.271 145.761V156.2H558.115V55.385H579.7V95.425C581.796 92.0883 584.75 89.4667 588.562 87.56C592.469 85.558 596.758 84.557 601.427 84.557C607.526 84.557 612.863 86.0347 617.437 88.99C622.106 91.9453 625.727 96.14 628.3 101.574C630.873 107.008 632.16 113.491 632.16 121.022C632.16 128.553 630.873 135.084 628.3 140.613C625.727 146.047 622.106 150.289 617.437 153.34C612.863 156.295 607.526 157.773 601.427 157.773ZM594.995 141.614C599.569 141.614 603.285 139.946 606.144 136.609C609.003 133.272 610.432 128.077 610.432 121.022C610.432 114.063 609.003 108.962 606.144 105.721C603.285 102.384 599.569 100.716 594.995 100.716C590.325 100.716 586.561 102.384 583.702 105.721C580.843 108.962 579.414 114.063 579.414 121.022C579.414 128.077 580.843 133.272 583.702 136.609C586.561 139.946 590.325 141.614 594.995 141.614Z" fill="#0E2445"/>
<path d="M653.516 181.94L666.953 152.339L638.078 85.987H660.806L678.388 130.603L696.542 85.987H717.984L675.529 181.94H653.516Z" fill="#0E2445"/>
<ellipse cx="745.507" cy="141.9" rx="16.4935" ry="16.5" fill="#00B0D9"/>
<defs>
<clipPath id="clip0">
<rect width="219.913" height="220" fill="white"/>
</clipPath>
</defs>
</svg>
