<svg width="140" height="150" viewBox="0 0 140 150" fill="none" xmlns="http://www.w3.org/2000/svg">
<path d="M67.2135 124.432H10.0106C4.48176 124.432 0 120.234 0 115.057V105.682H76.8293L67.2135 124.432Z" fill="#C3F1FF"/>
<path d="M129.756 45.1264V86.5848V114.205H9.98011C4.46813 114.205 0 109.787 0 104.337V45.1264L69.8684 20.4551L129.756 45.1264Z" fill="#EBF7FC"/>
<path d="M17.3727 65.0009H12.0516C10.7552 65.0009 9.70405 63.9515 9.70405 62.6571V57.3447C9.70405 56.0504 10.7552 55.001 12.0516 55.001H17.3727C18.6691 55.001 19.7202 56.0504 19.7202 57.3447V62.6571C19.7202 63.9515 18.6691 65.0009 17.3727 65.0009Z" fill="#094AA9"/>
<path d="M37.4053 65.0004H32.0842C30.7878 65.0004 29.7367 63.951 29.7367 62.6566V57.3442C29.7367 56.0499 30.7878 55.0005 32.0842 55.0005H37.4053C38.7017 55.0005 39.7528 56.0499 39.7528 57.3442V62.6566C39.7528 63.951 38.7017 65.0004 37.4053 65.0004Z" fill="#094AA9"/>
<path d="M57.4376 65.0004H52.1165C50.8201 65.0004 49.769 63.951 49.769 62.6566V57.3442C49.769 56.0499 50.8201 55.0005 52.1165 55.0005H57.4376C58.734 55.0005 59.7851 56.0499 59.7851 57.3442V62.6566C59.7851 63.951 58.7343 65.0004 57.4376 65.0004Z" fill="#094AA9"/>
<path d="M77.4702 65.0004H72.1492C70.8527 65.0004 69.8016 63.951 69.8016 62.6566V57.3442C69.8016 56.0499 70.8527 55.0005 72.1492 55.0005H77.4702C78.7666 55.0005 79.8178 56.0499 79.8178 57.3442V62.6566C79.8178 63.951 78.7666 65.0004 77.4702 65.0004Z" fill="#094AA9"/>
<path d="M97.4993 65.0004H92.1783C90.8818 65.0004 89.8307 63.951 89.8307 62.6566V57.3442C89.8307 56.0499 90.8818 55.0005 92.1783 55.0005H97.4993C98.7958 55.0005 99.8469 56.0499 99.8469 57.3442V62.6566C99.8469 63.951 98.7961 65.0004 97.4993 65.0004Z" fill="#094AA9"/>
<path d="M117.532 65.0004H112.211C110.914 65.0004 109.863 63.951 109.863 62.6566V57.3442C109.863 56.0499 110.914 55.0005 112.211 55.0005H117.532C118.828 55.0005 119.879 56.0499 119.879 57.3442V62.6566C119.879 63.951 118.828 65.0004 117.532 65.0004Z" fill="#094AA9"/>
<path d="M17.3726 84.9999H12.0516C10.7552 84.9999 9.70403 83.9505 9.70403 82.6562V77.3438C9.70403 76.0494 10.7552 75 12.0516 75H17.3726C18.6691 75 19.7202 76.0494 19.7202 77.3438V82.6562C19.7202 83.9508 18.6691 84.9999 17.3726 84.9999Z" fill="#094AA9"/>
<path d="M37.4053 84.9999H32.0843C30.7878 84.9999 29.7367 83.9505 29.7367 82.6562V77.3438C29.7367 76.0494 30.7878 75 32.0843 75H37.4053C38.7017 75 39.7529 76.0494 39.7529 77.3438V82.6562C39.7529 83.9508 38.7017 84.9999 37.4053 84.9999Z" fill="#094AA9"/>
<path d="M57.4376 84.9999H52.1166C50.8201 84.9999 49.769 83.9505 49.769 82.6562V77.3438C49.769 76.0494 50.8201 75 52.1166 75H57.4376C58.734 75 59.7852 76.0494 59.7852 77.3438V82.6562C59.7852 83.9508 58.7343 84.9999 57.4376 84.9999Z" fill="#094AA9"/>
<path d="M79.8177 84.9999V77.4999C79.8177 76.1191 78.6968 75 77.3138 75H72.3056C70.9225 75 69.8016 76.1191 69.8016 77.4999V82.5C69.8016 83.8808 70.9228 84.9999 72.3056 84.9999H79.8177Z" fill="#094AA9"/>
<path d="M17.3726 105H12.0516C10.7552 105 9.70403 103.95 9.70403 102.656V97.3438C9.70403 96.0494 10.7552 95 12.0516 95H17.3726C18.6691 95 19.7202 96.0494 19.7202 97.3438V102.656C19.7202 103.95 18.6691 105 17.3726 105Z" fill="#094AA9"/>
<path d="M37.4053 105H32.0843C30.7878 105 29.7367 103.95 29.7367 102.656V97.3438C29.7367 96.0494 30.7878 95 32.0843 95H37.4053C38.7017 95 39.7529 96.0494 39.7529 97.3438V102.656C39.7529 103.95 38.7017 105 37.4053 105Z" fill="#094AA9"/>
<path d="M57.4376 105H52.1166C50.8201 105 49.769 103.95 49.769 102.656V97.3438C49.769 96.0494 50.8201 95 52.1166 95H57.4376C58.734 95 59.7852 96.0494 59.7852 97.3438V102.656C59.7852 103.95 58.7343 105 57.4376 105Z" fill="#094AA9"/>
<path d="M122.927 40.9087V86.0613V114.204H129.756V86.0613V43.8189L122.927 40.9087Z" fill="#C3F1FF"/>
<path d="M129.756 46.023V20.4545C129.756 14.8062 125.288 10.2275 119.776 10.2275H9.98011C4.46813 10.2275 0 14.8062 0 20.4545V46.023H129.756Z" fill="#00B0D9"/>
<path d="M31.2446 22.2638H24.7251C23.4727 22.2638 22.4579 21.2504 22.4579 20.0003C22.4579 18.7502 23.4729 17.7368 24.7251 17.7368H31.2446C32.497 17.7368 33.5117 18.7502 33.5117 20.0003C33.5117 21.2504 32.4967 22.2638 31.2446 22.2638Z" fill="#1099B9"/>
<path d="M47.2614 22.2633H40.7419C39.4895 22.2633 38.4748 21.2499 38.4748 19.9998C38.4748 18.7497 39.4898 17.7363 40.7419 17.7363H47.2614C48.5138 17.7363 49.5286 18.7497 49.5286 19.9998C49.5286 21.2499 48.5138 22.2633 47.2614 22.2633Z" fill="#1099B9"/>
<path d="M88.8414 22.2633H82.3216C81.0692 22.2633 80.0545 21.2499 80.0545 19.9998C80.0545 18.7497 81.0695 17.7363 82.3216 17.7363H88.8414C90.0938 17.7363 91.1085 18.7497 91.1085 19.9998C91.1085 21.2499 90.0938 22.2633 88.8414 22.2633Z" fill="#1099B9"/>
<path d="M104.859 22.2633H98.3388C97.0863 22.2633 96.0716 21.2499 96.0716 19.9998C96.0716 18.7497 97.0866 17.7363 98.3388 17.7363H104.859C106.111 17.7363 107.126 18.7497 107.126 19.9998C107.126 21.2499 106.111 22.2633 104.859 22.2633Z" fill="#1099B9"/>
<path d="M42.6829 17.8978C42.6829 21.1927 39.6254 23.8636 35.8536 23.8636C32.0819 23.8636 29.0244 21.1927 29.0244 17.8978V5.96584C29.024 2.67097 32.0816 0 35.8533 0C39.625 0 42.6826 2.67097 42.6826 5.96584V17.8978H42.6829Z" fill="#C3F1FF"/>
<path d="M100.732 17.8978C100.732 21.1927 97.6743 23.8636 93.9026 23.8636C90.131 23.8636 87.0732 21.1927 87.0732 17.8978V5.96584C87.0732 2.67097 90.1306 0 93.9023 0C97.6739 0 100.731 2.67097 100.731 5.96584V17.8978H100.732Z" fill="#C3F1FF"/>
<path d="M119.68 10.2275H112.683C118.248 10.2275 122.759 14.8061 122.759 20.4544V46.023H129.756V20.4547C129.756 14.8064 125.245 10.2275 119.68 10.2275Z" fill="#1099B9"/>
<path d="M0 32.3862H129.756V37.4999H0V32.3862Z" fill="#094AA9"/>
<path d="M102.439 150C123.183 150 140 133.211 140 112.5C140 91.7893 123.183 75 102.439 75C81.6947 75 64.8781 91.7893 64.8781 112.5C64.8781 133.211 81.6947 150 102.439 150Z" fill="#DD636E"/>
<path d="M101.585 139.773C117.144 139.773 129.756 127.181 129.756 111.648C129.756 96.1149 117.144 83.5229 101.585 83.5229C86.027 83.5229 73.4146 96.1149 73.4146 111.648C73.4146 127.181 86.027 139.773 101.585 139.773Z" fill="#EBF5FC"/>
<path d="M102.496 75C101.325 75 100.168 75.0565 99.0246 75.1614C118.11 76.9131 133.058 92.9599 133.058 112.5C133.058 132.04 118.11 148.087 99.0244 149.839C100.168 149.943 101.325 150 102.496 150C123.209 150 140 133.211 140 112.5C140 91.7895 123.209 75 102.496 75Z" fill="#DA4A54"/>
<path d="M102.466 83.5229C101.3 83.5229 100.152 83.5988 99.0244 83.745C112.471 85.4891 122.872 97.3165 122.872 111.648C122.872 125.979 112.471 137.807 99.0244 139.551C100.152 139.697 101.3 139.773 102.466 139.773C117.538 139.773 129.756 127.181 129.756 111.648C129.756 96.115 117.538 83.5229 102.466 83.5229Z" fill="#DAF1F4"/>
<path d="M97.1515 100.569H90.6947L96.9859 111.648L90.4878 122.728H97.0273L100.628 116.149H100.794L104.395 122.728H110.976L104.395 111.648L110.727 100.569H104.312L100.794 107.017H100.628L97.1515 100.569Z" fill="#DD636E"/>
</svg>
