<svg width="27" height="27" viewBox="0 0 27 27" fill="none" xmlns="http://www.w3.org/2000/svg">
<path d="M19.7151 15.9344C19.4431 16.198 19.3182 16.5791 19.3801 16.9529L20.3136 22.1189C20.3923 22.5568 20.2075 22.9999 19.8411 23.2529C19.482 23.5154 19.0042 23.5469 18.6126 23.3369L13.9621 20.9114C13.8004 20.8253 13.6209 20.7791 13.4371 20.7739H13.1526C13.0539 20.7886 12.9573 20.8201 12.8691 20.8684L8.21756 23.3054C7.98761 23.4209 7.72721 23.4619 7.47206 23.4209C6.85046 23.3033 6.43571 22.7111 6.53756 22.0864L7.47206 16.9204C7.53401 16.5434 7.40906 16.1602 7.13711 15.8924L3.34556 12.2174C3.02846 11.9098 2.91821 11.4478 3.06311 11.0309C3.20381 10.6151 3.56291 10.3117 3.99656 10.2434L9.21506 9.48639C9.61196 9.44544 9.96056 9.20394 10.1391 8.84694L12.4386 4.13244C12.4932 4.02744 12.5635 3.93084 12.6486 3.84894L12.7431 3.77544C12.7924 3.72084 12.8491 3.67569 12.9121 3.63894L13.0266 3.59694L13.2051 3.52344H13.6471C14.0419 3.56439 14.3895 3.80064 14.5711 4.15344L16.9011 8.84694C17.0691 9.19029 17.3956 9.42864 17.7726 9.48639L22.9911 10.2434C23.4321 10.3064 23.8006 10.6109 23.9466 11.0309C24.0841 11.452 23.9655 11.914 23.6421 12.2174L19.7151 15.9344Z" fill="#979797"/>
</svg>
