<svg width="148" height="146" viewBox="0 0 148 146" fill="none" xmlns="http://www.w3.org/2000/svg">
<path d="M109.528 11.9339C109.528 5.34281 114.871 0 121.462 0H28.5717C23.3304 0 19.0814 4.24905 19.0814 9.49039V117.562H109.527V29.9469V23.8682V11.9339H109.528Z" fill="#EBF7FC"/>
<path d="M114.257 0C107.666 0 102.323 5.3431 102.323 11.9339V59.2599C102.323 62.0445 100.494 64.5216 97.8139 65.2773C78.0511 70.8499 63.5657 89.0098 63.5657 110.555C63.5657 116.22 64.5674 121.65 66.4024 126.679H102.323H109.528V63.527V29.9466V11.9339C109.528 5.34281 114.871 0 121.462 0H114.257Z" fill="#C3F1FF"/>
<path d="M95.1038 20.5815H35.3135C34.0546 20.5815 33.034 19.5612 33.034 18.302C33.034 17.0428 34.0543 16.0225 35.3135 16.0225H95.1038C96.3627 16.0225 97.3833 17.0428 97.3833 18.302C97.3833 19.5612 96.3627 20.5815 95.1038 20.5815Z" fill="#094AA9"/>
<path d="M95.1039 43.3139H35.3136C34.0547 43.3139 33.0341 42.2936 33.0341 41.0344C33.0341 39.7752 34.0544 38.7549 35.3136 38.7549H95.1039C96.3628 38.7549 97.3834 39.7752 97.3834 41.0344C97.3834 42.2936 96.3628 43.3139 95.1039 43.3139Z" fill="#094AA9"/>
<path d="M95.1039 66.0439H35.3136C34.0547 66.0439 33.0341 65.0236 33.0341 63.7644C33.0341 62.5055 34.0544 61.4849 35.3136 61.4849H95.1039C96.3628 61.4849 97.3834 62.5052 97.3834 63.7644C97.3834 65.0236 96.3628 66.0439 95.1039 66.0439Z" fill="#094AA9"/>
<path d="M95.1039 88.7734H35.3136C34.0547 88.7734 33.0341 87.7531 33.0341 86.4939C33.0341 85.2347 34.0544 84.2144 35.3136 84.2144H95.1039C96.3628 84.2144 97.3834 85.2347 97.3834 86.4939C97.3834 87.7531 96.3628 88.7734 95.1039 88.7734Z" fill="#094AA9"/>
<path d="M98.6241 126.68H16.8726C7.5542 126.68 0 119.125 0 109.807V106.819C0 106.029 0.640382 105.389 1.43002 105.389H98.6241V126.68Z" fill="#00B0D9"/>
<path d="M63.5657 110.556C63.5657 116.22 64.5674 121.65 66.4024 126.68H98.6241V105.389H63.8494C63.6639 107.086 63.5657 108.809 63.5657 110.556Z" fill="#1099B9"/>
<path d="M131.271 29.9466H109.527V11.9339C109.527 5.34281 114.87 0 121.461 0C128.052 0 133.395 5.3431 133.395 11.9339V27.8222C133.396 28.9956 132.445 29.9466 131.271 29.9466Z" fill="#00B0D9"/>
<path d="M125.349 0.651295C124.13 0.231257 122.824 0 121.462 0C114.871 0 109.528 5.3431 109.528 11.9339V29.9466H117.303V11.9339C117.303 6.70469 120.668 2.2642 125.349 0.651295Z" fill="#1099B9"/>
<path d="M110.439 146C131.183 146 148 129.211 148 108.5C148 87.7893 131.183 71 110.439 71C89.6947 71 72.8781 87.7893 72.8781 108.5C72.8781 129.211 89.6947 146 110.439 146Z" fill="#DD636E"/>
<path d="M109.585 135.773C125.144 135.773 137.756 123.181 137.756 107.648C137.756 92.1154 125.144 79.5234 109.585 79.5234C94.027 79.5234 81.4146 92.1154 81.4146 107.648C81.4146 123.181 94.027 135.773 109.585 135.773Z" fill="#EBF5FC"/>
<path d="M110.496 71C109.325 71 108.168 71.0565 107.025 71.1614C126.11 72.9131 141.058 88.9599 141.058 108.5C141.058 128.04 126.11 144.087 107.024 145.839C108.168 145.943 109.325 146 110.496 146C131.209 146 148 129.211 148 108.5C148 87.7895 131.209 71 110.496 71Z" fill="#DA4A54"/>
<path d="M110.466 79.5234C109.3 79.5234 108.152 79.5992 107.024 79.7455C120.471 81.4896 130.872 93.317 130.872 107.648C130.872 121.98 120.471 133.807 107.024 135.551C108.152 135.698 109.3 135.773 110.466 135.773C125.538 135.773 137.756 123.181 137.756 107.648C137.756 92.1155 125.538 79.5234 110.466 79.5234Z" fill="#DAF1F4"/>
<path d="M105.152 96.5684H98.6947L104.986 107.648L98.4878 118.727H105.027L108.628 112.149H108.794L112.395 118.727H118.976L112.395 107.648L118.727 96.5684H112.312L108.794 103.017H108.628L105.152 96.5684Z" fill="#DD636E"/>
</svg>
