<svg width="18" height="16" viewBox="0 0 18 16" fill="none" xmlns="http://www.w3.org/2000/svg">
<path d="M13.9321 9.93343C13.7162 10.1426 13.6171 10.4451 13.6662 10.7418L14.4071 14.8418C14.4696 15.1893 14.3229 15.5409 14.0321 15.7418C13.7471 15.9501 13.3679 15.9751 13.0571 15.8084L9.36625 13.8834C9.23791 13.8151 9.09541 13.7784 8.94958 13.7743H8.72375C8.64541 13.7859 8.56875 13.8109 8.49875 13.8493L4.80708 15.7834C4.62458 15.8751 4.41791 15.9076 4.21541 15.8751C3.72208 15.7818 3.39291 15.3118 3.47375 14.8159L4.21541 10.7159C4.26458 10.4168 4.16541 10.1126 3.94958 9.9001L0.940414 6.98343C0.688748 6.73927 0.601248 6.3726 0.716248 6.04177C0.827914 5.71177 1.11291 5.47093 1.45708 5.41677L5.59875 4.81593C5.91375 4.78343 6.19041 4.59177 6.33208 4.30843L8.15708 0.566768C8.20041 0.483435 8.25625 0.406768 8.32375 0.341768L8.39875 0.283435C8.43791 0.240102 8.48291 0.204268 8.53291 0.175102L8.62375 0.141768L8.76541 0.0834351H9.11625C9.42958 0.115935 9.70541 0.303435 9.84958 0.583435L11.6987 4.30843C11.8321 4.58094 12.0912 4.7701 12.3904 4.81593L16.5321 5.41677C16.8821 5.46677 17.1746 5.70844 17.2904 6.04177C17.3996 6.37594 17.3054 6.7426 17.0487 6.98343L13.9321 9.93343Z" fill="#FE8947"/>
</svg>
