
<svg width="20" height="20" viewBox="0 0 20 20" fill="none" xmlns="http://www.w3.org/2000/svg">
<path d="M14.9317 11.9334C14.7159 12.1426 14.6167 12.4451 14.6659 12.7418L15.4067 16.8418C15.4692 17.1893 15.3226 17.5409 15.0317 17.7418C14.7467 17.9501 14.3676 17.9751 14.0567 17.8084L10.3659 15.8834C10.2376 15.8151 10.0951 15.7784 9.94925 15.7743H9.72341C9.64508 15.7859 9.56841 15.8109 9.49841 15.8493L5.80675 17.7834C5.62425 17.8751 5.41758 17.9076 5.21508 17.8751C4.72175 17.7818 4.39258 17.3118 4.47341 16.8159L5.21508 12.7159C5.26425 12.4168 5.16508 12.1126 4.94925 11.9001L1.94008 8.98342C1.68841 8.73925 1.60091 8.37259 1.71591 8.04175C1.82758 7.71175 2.11258 7.47092 2.45675 7.41675L6.59841 6.81592C6.91341 6.78342 7.19008 6.59175 7.33175 6.30842L9.15674 2.56675C9.20008 2.48342 9.25591 2.40675 9.32341 2.34175L9.39841 2.28342C9.43758 2.24009 9.48258 2.20425 9.53258 2.17509L9.62341 2.14175L9.76508 2.08342H10.1159C10.4292 2.11592 10.7051 2.30342 10.8492 2.58342L12.6984 6.30842C12.8317 6.58092 13.0909 6.77009 13.3901 6.81592L17.5317 7.41675C17.8817 7.46675 18.1742 7.70842 18.2901 8.04175C18.3992 8.37592 18.3051 8.74259 18.0484 8.98342L14.9317 11.9334Z" fill="#FE8947"/>
</svg>
